<svg width="320" height="240" viewBox="0 0 320 240" fill="none" xmlns="http://www.w3.org/2000/svg">
  <defs>
    <linearGradient id="paint0_linear" x1="36" y1="16" x2="284" y2="224" gradientUnits="userSpaceOnUse">
      <stop stop-color="#00C6FF" />
      <stop offset="1" stop-color="#0072FF" />
    </linearGradient>
    <linearGradient id="paint1_linear" x1="84" y1="64" x2="236" y2="180" gradientUnits="userSpaceOnUse">
      <stop stop-color="#FDFCFF" stop-opacity="0.9" />
      <stop offset="1" stop-color="#E4ECFF" stop-opacity="0.7" />
    </linearGradient>
    <radialGradient id="paint2_radial" cx="0" cy="0" r="1" gradientUnits="userSpaceOnUse" gradientTransform="translate(160 50) rotate(90) scale(120 160)">
      <stop stop-color="#FFFFFF" stop-opacity="0.55" />
      <stop offset="1" stop-color="#FFFFFF" stop-opacity="0" />
    </radialGradient>
    <filter id="shadow" x="32" y="28" width="256" height="188" filterUnits="userSpaceOnUse" color-interpolation-filters="sRGB">
      <feFlood flood-opacity="0" result="BackgroundImageFix" />
      <feColorMatrix in="SourceAlpha" type="matrix" values="0 0 0 0 0 0 0 0 0 0 0 0 0 0 0 0 0 0 127 0" result="hardAlpha" />
      <feOffset dy="10" />
      <feGaussianBlur stdDeviation="18" />
      <feComposite in2="hardAlpha" operator="out" />
      <feColorMatrix type="matrix" values="0 0 0 0 0.0352941 0 0 0 0 0.235294 0 0 0 0 0.533333 0 0 0 0.15 0" />
      <feBlend mode="normal" in2="BackgroundImageFix" result="effect1_dropShadow" />
      <feBlend mode="normal" in="SourceGraphic" in2="effect1_dropShadow" result="shape" />
    </filter>
  </defs>
  <rect x="16" y="16" width="288" height="208" rx="32" fill="url(#paint0_linear)" />
  <rect x="16" y="16" width="288" height="208" rx="32" fill="url(#paint2_radial)" />
  <g filter="url(#shadow)">
    <rect x="56" y="56" width="208" height="148" rx="24" fill="url(#paint1_linear)" />
  </g>
  <rect x="86" y="86" width="148" height="24" rx="12" fill="#FFFFFF" fill-opacity="0.85" />
  <rect x="86" y="130" width="104" height="16" rx="8" fill="#FFFFFF" fill-opacity="0.65" />
  <g opacity="0.85">
    <path d="M112 170c0-13.807 11.193-25 25-25s25 11.193 25 25-11.193 25-25 25-25-11.193-25-25z" fill="#2563EB" fill-opacity="0.85" />
    <path d="M123.5 170l8.5 8.75L151.5 159" stroke="#F8FAFF" stroke-width="6" stroke-linecap="round" stroke-linejoin="round" />
  </g>
  <circle cx="248" cy="72" r="12" fill="#60A5FA" fill-opacity="0.8" />
  <circle cx="228" cy="52" r="8" fill="#BFDBFE" fill-opacity="0.7" />
  <circle cx="252" cy="54" r="5" fill="#DBEAFE" fill-opacity="0.9" />
</svg>
