<svg width="320" height="200" viewBox="0 0 320 200" fill="none" xmlns="http://www.w3.org/2000/svg">
  <defs>
    <linearGradient id="preview_bg" x1="40" y1="20" x2="300" y2="180" gradientUnits="userSpaceOnUse">
      <stop stop-color="#6366F1" />
      <stop offset="1" stop-color="#EC4899" />
    </linearGradient>
    <linearGradient id="preview_card" x1="90" y1="70" x2="230" y2="150" gradientUnits="userSpaceOnUse">
      <stop stop-color="#FFFFFF" stop-opacity="0.95" />
      <stop offset="1" stop-color="#F9FAFB" stop-opacity="0.8" />
    </linearGradient>
    <filter id="preview_shadow" x="56" y="58" width="208" height="124" filterUnits="userSpaceOnUse" color-interpolation-filters="sRGB">
      <feFlood flood-opacity="0" result="BackgroundImageFix" />
      <feColorMatrix in="SourceAlpha" type="matrix" values="0 0 0 0 0 0 0 0 0 0 0 0 0 0 0 0 0 0 127 0" result="hardAlpha" />
      <feOffset dy="8" />
      <feGaussianBlur stdDeviation="16" />
      <feComposite in2="hardAlpha" operator="out" />
      <feColorMatrix type="matrix" values="0 0 0 0 0.109804 0 0 0 0 0.0666667 0 0 0 0 0.337255 0 0 0 0.22 0" />
      <feBlend mode="normal" in2="BackgroundImageFix" result="effect1_dropShadow" />
      <feBlend mode="normal" in="SourceGraphic" in2="effect1_dropShadow" result="shape" />
    </filter>
  </defs>
  <rect x="16" y="16" width="288" height="168" rx="28" fill="url(#preview_bg)" />
  <g filter="url(#preview_shadow)">
    <rect x="72" y="70" width="176" height="96" rx="18" fill="url(#preview_card)" />
  </g>
  <rect x="112" y="102" width="96" height="12" rx="6" fill="#1E1B4B" fill-opacity="0.45" />
  <rect x="122" y="122" width="76" height="10" rx="5" fill="#1E1B4B" fill-opacity="0.25" />
  <path d="M95 66c0-8.008 6.492-14.5 14.5-14.5S124 57.992 124 66s-6.492 14.5-14.5 14.5S95 74.008 95 66z" fill="#FDE68A" fill-opacity="0.9" />
  <path d="M205 58c0-6.627 5.373-12 12-12s12 5.373 12 12-5.373 12-12 12-12-5.373-12-12z" fill="#C4B5FD" fill-opacity="0.85" />
  <path d="M226 152c0-10.494 8.506-19 19-19s19 8.506 19 19-8.506 19-19 19-19-8.506-19-19z" fill="#FCA5A5" fill-opacity="0.8" />
  <path d="M62 142c0-7.18 5.82-13 13-13s13 5.82 13 13-5.82 13-13 13-13-5.82-13-13z" fill="#A5B4FC" fill-opacity="0.75" />
  <path d="M98 154c0-4.418 3.582-8 8-8s8 3.582 8 8-3.582 8-8 8-8-3.582-8-8z" fill="#FDF2F8" fill-opacity="0.85" />
</svg>
